<svg width="25" height="25" viewBox="0 0 25 25" fill="none" xmlns="http://www.w3.org/2000/svg">
<path fill-rule="evenodd" clip-rule="evenodd" d="M3.375 12.2773C3.375 7.16871 7.51637 3.02734 12.625 3.02734C17.7336 3.02734 21.875 7.16871 21.875 12.2773C21.875 17.386 17.7336 21.5273 12.625 21.5273C7.51637 21.5273 3.375 17.386 3.375 12.2773ZM12.625 1.52734C6.68794 1.52734 1.875 6.34028 1.875 12.2773C1.875 18.2144 6.68794 23.0273 12.625 23.0273C18.5621 23.0273 23.375 18.2144 23.375 12.2773C23.375 6.34028 18.5621 1.52734 12.625 1.52734ZM11.1531 9.26419C10.625 9.54684 10.625 10.3694 10.625 12.0144V12.5403C10.625 14.1853 10.625 15.0078 11.1531 15.2905C11.6813 15.5732 12.3657 15.1169 13.7344 14.2044L14.1288 13.9414C15.2578 13.1888 15.8222 12.8125 15.8222 12.2773C15.8222 11.7422 15.2578 11.3659 14.1288 10.6132L13.7344 10.3503C12.3657 9.43778 11.6813 8.98153 11.1531 9.26419Z" fill="#356197"/>
</svg>
